# xmcd
#
# Track frame offsets: 
#        150
#        15512
#        30112
#        52625
#        63200
#        74612
#        86075
#        99575
#        111287
#        129400
#        144887
#        159112
#        174925
#        203837
#        224850
#
# Disc length: 3262 seconds
#
# Revision: 2
# Processed by: cddbd v1.5.2PL0 Copyright (c) Steve Scherf et al.
# Submitted via: ExactAudioCopyFreeDBPlugin 1.0
#
DISCID=bf0cbc0f
DTITLE=Various Artist - Blues Spirit Vol.1 -Crossroads-
DYEAR=1993
DGENRE=Blues
TTITLE0=Blind Willie Johnson - Mother's Children Have A Hard Time
TTITLE1=Blind Willie Johnson - Jesus Is Coming Soon
TTITLE2=Willie Dixon - Spoonful
TTITLE3=Robert Johnson - Malted Milk
TTITLE4=Robert Johnson - Walking Blues
TTITLE5=Robert Johnson - Cross Road Blues
TTITLE6=Bessie Smith - Nobudy Knows You When You're Down And Out
TTITLE7=Sister O. M. Terrell - Swing Low, Chariot
TTITLE8=Muddy Waters - I'm Your Hoochie Cooche Man
TTITLE9=Wuddy Waters - Good Morning Little School Girl
TTITLE10=Leadbelly - Alberta
TTITLE11=Johnny Winter - Rollin' And Tumblin'
TTITLE12=Stevie Ray Vaughan and Double Trouble - All Your Love I Miss Lo
TTITLE12=ving
TTITLE13=Stevie Ray Vaughan and Double Trouble - The Sky Is Crying
TTITLE14=Son House - Motherless Children
EXTD=YEAR: 1993
EXTT0=
EXTT1=
EXTT2=
EXTT3=
EXTT4=
EXTT5=
EXTT6=
EXTT7=
EXTT8=
EXTT9=
EXTT10=
EXTT11=
EXTT12=
EXTT13=
EXTT14=
PLAYORDER=
